<?xml version="1.0" encoding="utf-8"?>
<!-- Generator: Adobe Illustrator 24.0.1, SVG Export Plug-In . SVG Version: 6.00 Build 0)  -->
<svg version="1.1" id="Capa_1" xmlns="http://www.w3.org/2000/svg" xmlns:xlink="http://www.w3.org/1999/xlink" x="0px" y="0px"
	 viewBox="0 0 512 512" style="enable-background:new 0 0 512 512;" xml:space="preserve">
<style type="text/css">
	.st0{fill:#4154F1;}
</style>
<g>
	<g>
		<g>
			<g>
				<path class="st0" d="M240.5,279.3c-51.4,0-93.1,41.7-93.1,93.1h92.3c51.4,0,93.1-41.7,93.1-93.1v-0.4
					C318.4,279.6,313.2,279.2,240.5,279.3z"/>
			</g>
			<g>
				<path class="st0" d="M191.4,47.2C143.4,16.5,87.5,0,30.1,0H7.8v30.6c0,32.8,11.6,64.2,32.4,89C79.4,78,132.4,51.7,191.4,47.2z"
					/>
			</g>
			<g>
				<path class="st0" d="M271.5,418.9c-17.5,0-33.6-5.8-46.5-15.5H116.4v-31c0-68.4,55.7-124.1,124.1-124.1c26.8,0,72.7,0,76.5,0
					c-23.7-47.4-19-108.1,18.7-152.3c-45.5-16.4-84.2-18.3-126.2-18.3c-110.6,0-200.8,89.1-201.7,200C6.8,389.4,99.3,481,211.2,481
					H325c-9.3-20.3-9.3-41.8,0-62.1H271.5z"/>
			</g>
			<g>
				<g>
					<path class="st0" d="M367,107.9l-0.8,0.8c-40.9,40-44.7,105.7-3.8,149.1l1.4,1.5c24.2-2.6,51.4-6.5,65.1-12
						c29.9-11.9,55.9-31,75.3-60.1C466.4,150.7,410.3,125.1,367,107.9L367,107.9z M411.2,201.7h-31v-31h31V201.7z"/>
				</g>
			</g>
			<g>
				<path class="st0" d="M426.7,387.9c-34.3,0-77.6,27.8-77.6,62.1s43.3,62.1,77.6,62.1h31l-31-62.1l31-62.1H426.7z"/>
			</g>
		</g>
	</g>
</g>
</svg>
